<svg width="204" height="47" viewBox="0 0 204 47" fill="none" xmlns="http://www.w3.org/2000/svg">
<path d="M0.4375 46.0222V0.75354H15.4456C21.9856 0.75354 27.5218 2.94254 32.0541 7.32054C36.5865 11.6985 38.8522 17.0547 38.8514 23.3891C38.8514 29.7235 36.5857 35.0797 32.0541 39.4577C27.5226 43.8357 21.9864 46.0238 15.4456 46.0222H0.4375ZM9.73614 37.5424H15.4456C19.5912 37.5424 22.9685 36.1821 25.5776 33.4614C28.1868 30.7408 29.4905 27.3825 29.4889 23.3867C29.4889 19.3941 28.1851 16.0358 25.5776 13.3119C22.9702 10.5879 19.5928 9.22843 15.4456 9.23332H9.7386L9.73614 37.5424Z" fill="white"/>
<path d="M40.7418 46.0222V0.75354H69.0851V9.55354H50.0405V18.8632H65.2379V27.6632H50.0405V37.2222H69.0851V46.0222H40.7418Z" fill="white"/>
<path d="M119.03 41.7445C128.793 41.7445 136.708 33.619 136.708 23.5957C136.708 13.5724 128.793 5.4469 119.03 5.4469C109.267 5.4469 101.352 13.5724 101.352 23.5957C101.352 33.619 109.267 41.7445 119.03 41.7445Z" fill="white"/>
<path d="M106.866 4.50821L93.644 32.1879L80.7549 0.752319H70.688L89.4759 46.0222H97.7482L102.673 34.1899L103.687 31.7735L107.483 22.6594C107.21 22.415 106.946 22.1608 106.698 21.898C104.601 19.7184 103.532 17.0018 103.491 13.7482C103.447 9.75562 104.825 6.59699 107.627 4.27232C109.967 2.33143 112.941 1.2021 116.548 0.884321L116.605 0.752319L106.866 4.50821Z" fill="white"/>
<path d="M102.335 31.7736C102.381 32.5878 102.495 33.3969 102.676 34.1923L103.687 31.7736H102.335Z" fill="#1A142B"/>
<path d="M100.57 31.7748H110.361C110.674 33.6684 111.641 35.1497 113.264 36.2188C114.886 37.2878 116.799 37.8231 119.003 37.8248C120.983 37.8248 122.615 37.4235 123.897 36.6209C125.18 35.8183 125.821 34.7378 125.822 33.3795C125.822 30.9522 123.684 29.1824 119.407 28.0702L114.344 26.7111C110.428 25.6828 107.367 24.078 105.161 21.8968C102.955 19.7155 101.83 16.9989 101.786 13.747C101.743 9.7601 103.196 6.60188 106.146 4.27232C109.096 1.94277 113 0.780435 117.86 0.785324C122.766 0.785324 126.749 2.13303 129.81 4.82843C132.87 7.52384 134.488 10.6218 134.662 14.1222H124.94C124.448 12.3924 123.537 11.1164 122.206 10.2942C120.902 9.47854 119.391 9.05024 117.851 9.05977C116.096 9.05977 114.633 9.41992 113.462 10.1402C112.291 10.8605 111.683 11.8582 111.639 13.1334C111.593 14.451 112.077 15.5212 113.091 16.3442C114.104 17.1672 115.623 17.8463 117.648 18.3817L123.252 19.8007C127.212 20.7882 130.274 22.4138 132.435 24.6773C134.597 26.9409 135.678 29.7373 135.679 33.0667C135.679 36.8547 134.137 39.9722 131.054 42.4191C127.97 44.866 123.955 46.0907 119.008 46.0931C113.562 46.0931 109.184 44.6733 105.875 41.8337C102.566 38.994 100.798 35.6411 100.57 31.7748Z" fill="#1A142B"/>
<path d="M161.168 9.55232V0.752319H132.825V8.08565C133.966 9.90304 134.618 11.9819 134.717 14.1222H132.825V24.9389C134.728 27.1544 135.679 29.8669 135.678 33.0764C135.678 36.1247 134.727 38.7402 132.825 40.9231V46.0222H161.168V37.2222H142.124V27.6608H157.321V18.8608H142.124V9.55232H161.168Z" fill="white"/>
<path d="M164.839 46.0222V0.75354H179.844C186.385 0.75354 191.921 2.94254 196.453 7.32054C200.984 11.6985 203.25 17.0547 203.25 23.3891C203.25 29.7235 200.984 35.0797 196.453 39.4577C191.921 43.8357 186.385 46.0238 179.844 46.0222H164.839ZM174.137 37.5424H179.844C183.991 37.5424 187.368 36.1821 189.976 33.4614C192.585 30.7408 193.888 27.3825 193.887 23.3867C193.887 19.3941 192.584 16.0358 189.976 13.3119C187.369 10.5879 183.991 9.22843 179.844 9.23332H174.137V37.5424Z" fill="white"/>
</svg>
